<svg xmlns="http://www.w3.org/2000/svg" xmlns:xlink="http://www.w3.org/1999/xlink" width="63" height="63" viewBox="0 0 63 63">
  <defs>
    <linearGradient id="linear-gradient" x1="0.311" y1="0.174" x2="0.717" y2="1" gradientUnits="objectBoundingBox">
      <stop offset="0" stop-color="#fc0b7b"/>
      <stop offset="1" stop-color="#7820ad"/>
    </linearGradient>
    <filter id="Ellipse_24" x="-15" y="-12" width="93" height="93" filterUnits="userSpaceOnUse">
      <feOffset dy="3" input="SourceAlpha"/>
      <feGaussianBlur stdDeviation="5" result="blur"/>
      <feFlood flood-opacity="0.212"/>
      <feComposite operator="in" in2="blur"/>
      <feComposite in="SourceGraphic"/>
    </filter>
    <clipPath id="clip-path">
      <g transform="matrix(1, 0, 0, 1, 0, 0)" filter="url(#Ellipse_24)">
        <circle id="Ellipse_24-2" data-name="Ellipse 24" cx="31.5" cy="31.5" r="31.5" transform="translate(165 158)" fill="url(#linear-gradient)"/>
      </g>
    </clipPath>
    <radialGradient id="radial-gradient" cx="0.266" cy="1.077" r="0.991" gradientTransform="translate(-2.918 5.666) rotate(-90) scale(1 0.93)" gradientUnits="objectBoundingBox">
      <stop offset="0" stop-color="#fd5"/>
      <stop offset="0.1" stop-color="#fd5"/>
      <stop offset="0.5" stop-color="#ff543e"/>
      <stop offset="1" stop-color="#c837ab"/>
    </radialGradient>
    <radialGradient id="radial-gradient-2" cx="-0.168" cy="0.072" r="0.443" gradientTransform="matrix(0.196, 0.981, -4.042, 0.809, 15.634, -0.42)" gradientUnits="objectBoundingBox">
      <stop offset="0" stop-color="#3771c8"/>
      <stop offset="0.128" stop-color="#3771c8"/>
      <stop offset="1" stop-color="#60f" stop-opacity="0"/>
    </radialGradient>
  </defs>
  <g id="Group_46" data-name="Group 46" transform="translate(-156 -716)">
    <g id="Mask_Group_2" data-name="Mask Group 2" transform="translate(-9 558)" clip-path="url(#clip-path)">
      <g id="Instagram-Logo.wine" transform="translate(163 155.054)">
        <path id="Path_78" data-name="Path 78" d="M32.76,0C19.087,0,15.089.015,14.311.084A15.473,15.473,0,0,0,7.857,1.81,13.15,13.15,0,0,0,4.094,4.742,15.373,15.373,0,0,0,.3,13.221C.079,14.851.015,15.183,0,23.509,0,26.284,0,29.937,0,34.836,0,49.378.017,53.63.082,54.456a18.421,18.421,0,0,0,1.562,6.735,14.022,14.022,0,0,0,8.942,7.775,21.914,21.914,0,0,0,4.755.67c.811.038,9.078.064,17.349.064s16.543-.011,17.334-.054a21.1,21.1,0,0,0,4.927-.686,13.938,13.938,0,0,0,8.942-7.791,18.118,18.118,0,0,0,1.544-6.6c.044-.6.063-10.175.063-19.737s-.02-19.121-.064-19.721a17.91,17.91,0,0,0-1.575-6.67A14.021,14.021,0,0,0,53.083.32C51.553.084,51.248.014,43.42,0Z" transform="translate(0)" fill="url(#radial-gradient)"/>
        <path id="Path_79" data-name="Path 79" d="M32.76,0C19.087,0,15.089.015,14.311.084A15.473,15.473,0,0,0,7.857,1.81,13.15,13.15,0,0,0,4.094,4.742,15.373,15.373,0,0,0,.3,13.221C.079,14.851.015,15.183,0,23.509,0,26.284,0,29.937,0,34.836,0,49.378.017,53.63.082,54.456a18.421,18.421,0,0,0,1.562,6.735,14.022,14.022,0,0,0,8.942,7.775,21.914,21.914,0,0,0,4.755.67c.811.038,9.078.064,17.349.064s16.543-.011,17.334-.054a21.1,21.1,0,0,0,4.927-.686,13.938,13.938,0,0,0,8.942-7.791,18.118,18.118,0,0,0,1.544-6.6c.044-.6.063-10.175.063-19.737s-.02-19.121-.064-19.721a17.91,17.91,0,0,0-1.575-6.67A14.021,14.021,0,0,0,53.083.32C51.553.084,51.248.014,43.42,0Z" transform="translate(0)" fill="url(#radial-gradient-2)"/>
      </g>
    </g>
    <g id="noun_insta_3323421" transform="translate(163.5 723.263)">
      <g id="Group_39" data-name="Group 39" transform="translate(8.5 8.5)">
        <path id="Path_2" data-name="Path 2" d="M33.345,15.846a1.683,1.683,0,0,1,.026.254,1.3,1.3,0,0,1-.385.926,1.125,1.125,0,0,1-.2.163,1.421,1.421,0,0,1-.228.118,1,1,0,0,1-.241.071,1.088,1.088,0,0,1-.254.026,1.444,1.444,0,0,1-.5-.1,1.364,1.364,0,0,1-.222-.118,1.435,1.435,0,0,1-.2-.163,1.319,1.319,0,0,1-.378-.926,1.121,1.121,0,0,1,.026-.254,1.029,1.029,0,0,1,.072-.241,1.424,1.424,0,0,1,.117-.228,1.566,1.566,0,0,1,.163-.2,1.487,1.487,0,0,1,.2-.163,1.36,1.36,0,0,1,.222-.117,1.655,1.655,0,0,1,.247-.079,1.31,1.31,0,0,1,1.174.359,1.181,1.181,0,0,1,.163.2,1.514,1.514,0,0,1,.124.228,1.473,1.473,0,0,1,.072.241ZM30.97,23.832a7.138,7.138,0,1,1-7.138-7.138A7.138,7.138,0,0,1,30.97,23.832Zm-6.159-4.854A.99.99,0,0,0,23.832,18a5.807,5.807,0,0,0-5.219,3.243.979.979,0,0,0,.235,1.174,1.1,1.1,0,0,0,.2.137.938.938,0,0,0,.437.1.97.97,0,0,0,.874-.542,3.854,3.854,0,0,1,3.471-2.16A.979.979,0,0,0,24.811,18.978Zm14.353.287V28.4A10.778,10.778,0,0,1,28.4,39.164H19.265A10.778,10.778,0,0,1,8.5,28.4V19.265A10.778,10.778,0,0,1,19.265,8.5H28.4A10.778,10.778,0,0,1,39.164,19.265Zm-1.957,0A8.818,8.818,0,0,0,28.4,10.457H19.265a8.818,8.818,0,0,0-8.808,8.808V28.4a8.818,8.818,0,0,0,8.808,8.808H28.4A8.818,8.818,0,0,0,37.207,28.4Z" transform="translate(-8.5 -8.5)" fill="#fff"/>
      </g>
    </g>
  </g>
</svg>
